# xmcd CD database file
#
# Track frame offsets:
#	150
#	15752
#	26089
#	42375
#	54311
#	67346
#	82882
#	96308
#	109412
#	124102
#	136070
#	154957
#
# Disc length: 2234 seconds
#
# Revision: 0
# Processed by: cddbd v1.5.2PL0 Copyright (c) Steve Scherf et al.
# Submitted via: CDex 1.79
#
DISCID=9c08b80c
DTITLE=Various Artist - jazz in the love-1
DYEAR=1900
DGENRE=Jazz
TTITLE0=101-unforgettable
TTITLE1=102-what a wonderful world
TTITLE2=103-unchained melody
TTITLE3=104-smoke gets  in your eyes
TTITLE4=105-when a men loves a women
TTITLE5=106-new york,new york
TTITLE6=107-stand by me
TTITLE7=108-you make me feel so young
TTITLE8=109-as time goes by
TTITLE9=110-if you love me
TTITLE10=111-I can't stop love you
TTITLE11=112-don't let me lonely tonight
EXTD=
EXTT0=
EXTT1=
EXTT2=
EXTT3=
EXTT4=
EXTT5=
EXTT6=
EXTT7=
EXTT8=
EXTT9=
EXTT10=
EXTT11=
PLAYORDER=
